<svg width="32" height="32" viewBox="0 0 32 32" fill="none" xmlns="http://www.w3.org/2000/svg">
<path d="M5.33337 8.00004C5.33337 6.52728 6.52728 5.33337 8.00004 5.33337H10.6667C12.1395 5.33337 13.3334 6.52728 13.3334 8.00004V10.6667C13.3334 12.1395 12.1395 13.3334 10.6667 13.3334H8.00004C6.52728 13.3334 5.33337 12.1395 5.33337 10.6667V8.00004Z" stroke="#3B82F6" stroke-width="2" stroke-linecap="round" stroke-linejoin="round"/>
<path d="M18.6667 8.00004C18.6667 6.52728 19.8606 5.33337 21.3334 5.33337H24C25.4728 5.33337 26.6667 6.52728 26.6667 8.00004V10.6667C26.6667 12.1395 25.4728 13.3334 24 13.3334H21.3334C19.8606 13.3334 18.6667 12.1395 18.6667 10.6667V8.00004Z" stroke="#3B82F6" stroke-width="2" stroke-linecap="round" stroke-linejoin="round"/>
<path d="M5.33337 21.3334C5.33337 19.8606 6.52728 18.6667 8.00004 18.6667H10.6667C12.1395 18.6667 13.3334 19.8606 13.3334 21.3334V24C13.3334 25.4728 12.1395 26.6667 10.6667 26.6667H8.00004C6.52728 26.6667 5.33337 25.4728 5.33337 24V21.3334Z" stroke="#3B82F6" stroke-width="2" stroke-linecap="round" stroke-linejoin="round"/>
<path d="M18.6667 21.3334C18.6667 19.8606 19.8606 18.6667 21.3334 18.6667H24C25.4728 18.6667 26.6667 19.8606 26.6667 21.3334V24C26.6667 25.4728 25.4728 26.6667 24 26.6667H21.3334C19.8606 26.6667 18.6667 25.4728 18.6667 24V21.3334Z" stroke="#3B82F6" stroke-width="2" stroke-linecap="round" stroke-linejoin="round"/>
</svg>
