<svg width="24" height="26" viewBox="0 0 24 26" fill="none" xmlns="http://www.w3.org/2000/svg">
<path d="M12.0001 0.200012C6.69816 0.200012 2.4001 4.49808 2.4001 9.80001V15.5373L1.26872 16.6686C0.811128 17.1262 0.674239 17.8144 0.921888 18.4123C1.16954 19.0102 1.75296 19.4 2.4001 19.4H21.6001C22.2472 19.4 22.8307 19.0102 23.0783 18.4123C23.326 17.8144 23.1891 17.1262 22.7315 16.6686L21.6001 15.5373V9.80001C21.6001 4.49808 17.302 0.200012 12.0001 0.200012Z" fill="#FFFDFD"/>
<path d="M12 25.8C9.34908 25.8 7.20005 23.651 7.20005 21H16.8C16.8 23.651 14.651 25.8 12 25.8Z" fill="#FFFDFD"/>
</svg>
