<svg width="32" height="32" viewBox="0 0 32 32" fill="none" xmlns="http://www.w3.org/2000/svg">
<path d="M14.6667 5.33329C14.6667 3.86053 15.8607 2.66663 17.3334 2.66663C18.8062 2.66663 20.0001 3.86053 20.0001 5.33329V6.66663C20.0001 7.40301 20.597 7.99996 21.3334 7.99996H25.3334C26.0698 7.99996 26.6667 8.59691 26.6667 9.33329V13.3333C26.6667 14.0697 26.0698 14.6666 25.3334 14.6666H24.0001C22.5273 14.6666 21.3334 15.8605 21.3334 17.3333C21.3334 18.8061 22.5273 20 24.0001 20H25.3334C26.0698 20 26.6667 20.5969 26.6667 21.3333V25.3333C26.6667 26.0697 26.0698 26.6666 25.3334 26.6666H21.3334C20.597 26.6666 20.0001 26.0697 20.0001 25.3333V24C20.0001 22.5272 18.8062 21.3333 17.3334 21.3333C15.8607 21.3333 14.6667 22.5272 14.6667 24V25.3333C14.6667 26.0697 14.0698 26.6666 13.3334 26.6666H9.33342C8.59704 26.6666 8.00008 26.0697 8.00008 25.3333V21.3333C8.00008 20.5969 7.40313 20 6.66675 20H5.33341C3.86066 20 2.66675 18.8061 2.66675 17.3333C2.66675 15.8605 3.86066 14.6666 5.33341 14.6666H6.66675C7.40313 14.6666 8.00008 14.0697 8.00008 13.3333V9.33329C8.00008 8.59691 8.59704 7.99996 9.33341 7.99996H13.3334C14.0698 7.99996 14.6667 7.40301 14.6667 6.66663V5.33329Z" stroke="#3700FF" stroke-opacity="0.7" stroke-width="2" stroke-linecap="round" stroke-linejoin="round"/>
</svg>
