<svg width="11" height="10" viewBox="0 0 11 10" fill="none" xmlns="http://www.w3.org/2000/svg">
<path d="M4.73915 1.34164C4.97864 0.604593 6.02136 0.604592 6.26085 1.34164L6.77973 2.9386C6.88683 3.26822 7.19399 3.49139 7.54058 3.49139H9.21972C9.9947 3.49139 10.3169 4.48308 9.68995 4.9386L8.33149 5.92558C8.0511 6.1293 7.93378 6.49039 8.04087 6.82001L8.55976 8.41697C8.79924 9.15402 7.95566 9.76692 7.32869 9.3114L5.97023 8.32442C5.68984 8.12071 5.31016 8.12071 5.02977 8.32442L3.67131 9.3114C3.04434 9.76692 2.20076 9.15402 2.44024 8.41697L2.95913 6.82001C3.06622 6.49039 2.9489 6.1293 2.66851 5.92558L1.31005 4.9386C0.683081 4.48308 1.0053 3.49139 1.78028 3.49139H3.45942C3.80601 3.49139 4.11317 3.26822 4.22027 2.9386L4.73915 1.34164Z" fill="#FBE307"/>
</svg>
